PathFileType	4	(X/Y/Z)	Patient4_TMGait_0pt4_02_right_20.trc.trc
DataRate	CameraRate	NumFrames	NumMarkers	Units	OrigDataRate	OrigDataStartFrame	OrigNumFrames
74.074074074074	74.074074074074	6	33	mm	74.074074074074	106	       141
Frame#	Time	Sacral			L.Shoulder			Chest			R.Shoulder			Neck			R.ASIS			L.ASIS			R.Thigh.Superior			R.Thigh.Lateral			R.Thigh.Inferior			R.Patella			L.Thigh.Superior			L.Thigh.Lateral			L.Thigh.Inferior			L.Patella			L.Shank.Superior			L.Shank.Lateral			L.Shank.Inferior			R.Shank.Superior			R.Shank.Lateral			R.Shank.Inferior			R.Heel			R.Midfoot.Superior			R.Midfoot.Lateral			R.Toe			L.Heel			L.Midfoot.Lateral			L.Midfoot.Superior			L.Toe			L.Elbow			L.Wrist			R.Elbow			R.Wrist			
		X1	Y1	Z1	X2	Y2	Z2	X3	Y3	Z3	X4	Y4	Z4	X5	Y5	Z5	X6	Y6	Z6	X7	Y7	Z7	X8	Y8	Z8	X9	Y9	Z9	X10	Y10	Z10	X11	Y11	Z11	X12	Y12	Z12	X13	Y13	Z13	X14	Y14	Z14	X15	Y15	Z15	X16	Y16	Z16	X17	Y17	Z17	X18	Y18	Z18	X19	Y19	Z19	X20	Y20	Z20	X21	Y21	Z21	X22	Y22	Z22	X23	Y23	Z23	X24	Y24	Z24	X25	Y25	Z25	X26	Y26	Z26	X27	Y27	Z27	X28	Y28	Z28	X29	Y29	Z29	X30	Y30	Z30	X31	Y31	Z31	X32	Y32	Z32	X33	Y33	Z33	

106	27.557500000000	880.380865912730	1004.279096467560	418.173221942111	1052.467937758830	1433.205557495477	222.423357608768	1146.785512374269	1378.312215532705	392.828969933750	1049.048606742745	1453.343974447440	558.281494661940	1023.013389656717	1501.288864330814	375.586514184551	1109.370473773083	957.774415784436	543.059886343061	1101.145606198578	967.685502905973	267.617162380769	1195.948733915108	785.896751329721	522.698679654092	1156.646647145753	664.922598740520	601.413076616393	1247.461363497000	624.672987975699	526.821853906459	1272.460005258226	522.784979173414	553.694764552969	1140.075955981866	751.403473180482	296.504996852386	1043.479718008862	637.831291297712	239.087023089892	1126.828794125318	557.693298606237	298.067194027309	1123.645085324625	489.225366927820	308.437708846076	1095.530017185735	417.609861175188	303.546356996046	1000.249711307221	304.037845132073	259.034898708056	1054.106154044311	193.843958725734	331.717765926498	1217.589192941397	436.901723245328	563.382180833370	1115.968029671794	366.309002512686	630.114820655648	1132.876866314195	255.872622719816	583.656845082727	959.866643118474	135.590715384586	566.286041350920	1138.649299571777	130.556177108024	597.319051199483	1037.263279584449	98.028563166490	637.571033934988	1236.108122391591	45.546940845244	622.689481440357	925.638764735263	39.259636401069	382.355516293943	997.908081419403	35.198534993083	299.970421017713	1081.605151514424	96.536744740286	324.516443237324	1209.697265326006	45.008254614277	294.676041210967	1126.772128485256	1095.535527930940	89.224495771219	1346.531138741849	953.057168705410	117.053914514573	999.430538079426	1113.685556568848	691.461109594429	1110.368813668705	877.015785944022	683.904764970675	
107	27.571000000000	879.782708469701	1004.606759686836	417.051826748065	1054.005154796033	1433.143951135509	221.762261510518	1147.131988189459	1378.071598094518	392.779588755957	1048.579797932130	1453.195726009339	557.661056033255	1023.559897125227	1501.320822547713	374.846298145702	1108.314630803933	957.721054524419	542.732851477472	1101.226283925370	967.799877964706	267.135367047309	1194.152366560487	785.379070395474	522.111243231226	1154.898370776005	664.903024791070	601.445445256625	1244.500445066877	623.876166668014	526.043177803336	1270.532606942202	524.446804656689	552.833471746705	1137.719430725930	750.743745932578	296.668085441170	1040.249332098063	637.923759303376	238.575657286069	1122.422618546178	557.136966020190	297.922146098426	1118.450487702501	488.862687033356	308.313563951777	1090.448816188559	417.466151536122	303.304835555162	995.093501549585	303.965564226851	258.810356695960	1048.813898875430	193.780991588430	331.619789363226	1220.352151888277	437.665324625634	563.455089820950	1124.438958322063	361.307512409708	631.757542417580	1147.662375780647	252.111212292870	585.137869856510	982.623927153061	121.717154402402	569.762156388710	1161.652492113467	126.982348822119	599.201915364654	1062.729462905647	88.736067282675	640.353341968824	1263.959591337983	47.554250776744	623.564591409441	920.224337470717	39.239221500202	382.344524811114	992.477387746810	35.175548709865	299.967155743127	1076.189632982853	96.536349008486	324.479828967722	1204.275900224906	44.984357531217	294.655992826213	1131.035284601781	1096.635104456569	88.086581288623	1355.436010813397	961.835501434954	116.351772843607	991.263262085636	1114.813616252558	690.384840727956	1085.880673932477	870.649304710057	686.582822197319	
108	27.584500000000	879.241349706891	1004.818018342105	416.119246308005	1055.471836551667	1432.958865611824	221.358461612705	1147.552290573172	1377.682760357721	392.894883752415	1048.335495813459	1452.896572146978	557.302548919005	1024.176186710982	1501.219024768112	374.380937145434	1107.328884640484	957.403568208540	542.486905445376	1101.276892149084	967.783733039841	266.770729133177	1191.893686701177	784.096025308921	521.699633548232	1152.183006851008	664.348424873310	601.676918030323	1240.555888710074	622.292569991307	525.499807007280	1267.432617177232	525.522729077144	552.023443860174	1135.507924900272	750.029659480454	296.859355600490	1037.166910265523	637.962289681756	238.127437014022	1118.096376180120	556.541856459071	297.916793198545	1113.336905390363	488.481041475685	308.344197702821	1085.462290606096	417.281764469498	303.185904525168	990.074841056700	303.855246849238	258.593609254972	1043.559921008198	193.676668261583	331.586608780614	1222.257125603559	438.252357431315	563.624528823294	1132.608445786660	356.263644154281	633.474851519495	1162.381959656084	248.806535975468	586.612468538119	1006.359946357356	108.465148384404	573.002011489147	1185.036148046842	124.299236815909	601.149708463284	1088.882917206710	80.283935203898	642.949726629158	1291.899946707820	50.729559706629	624.467414362116	914.814458687175	39.203795693090	382.336042263525	987.041714822945	35.145004484843	299.963370981484	1070.763055929825	96.527055306052	324.467057217541	1198.851236655931	44.958206606509	294.644578156506	1134.929378326282	1097.570707323745	87.148104563405	1363.663809396378	970.581421821515	115.732675873552	983.183935985826	1115.987549002963	689.342426453874	1061.921428820042	865.893365564217	688.999468922624	
109	27.598000000000	878.770776302887	1004.930753144329	415.363300429650	1056.861367142768	1432.682303941628	221.219061773421	1148.041863079365	1377.175657306485	393.181545352540	1048.307285587599	1452.478646624447	557.209810189247	1024.857378395482	1501.008296915295	374.197498806613	1106.417903155672	956.867379825054	542.337240209786	1101.317016915135	967.647844526897	266.537557819264	1189.204914623110	782.129857517138	521.503237599949	1148.554527119147	663.320232293159	602.117359654948	1235.765630481109	620.061852145831	525.227562693496	1263.318379103950	526.083032194977	551.292281648061	1133.462015827573	749.268618302531	297.095053158405	1034.234166338963	637.959945870052	237.757828475328	1113.843904551811	555.915377443693	298.064376054672	1108.302196257205	488.088135469491	308.531763387419	1080.558789211512	417.070102912699	303.191198538752	985.174143233592	303.722755080597	258.392970764733	1038.335481727464	193.542255160500	331.614860390422	1223.347882104318	438.747812002639	563.877962729253	1140.343740503200	351.372907677035	635.141436129228	1176.791868327650	246.144684572909	587.968917909956	1030.666884732108	96.231920153304	575.738402001291	1208.375914400542	122.684708901855	603.017388596874	1115.232577520490	72.934645182990	645.135427926725	1319.409489541710	55.149732653161	625.297906685770	909.403246064933	39.157841463115	382.327807376219	981.600435996166	35.109071269586	299.957601171037	1065.325705809270	96.509211144342	324.474778259457	1193.421876249522	44.930258199113	294.641436317374	1138.468291353407	1098.367343186942	86.409899873196	1371.191829139858	979.244492593374	115.208162815156	975.195314728459	1117.260138772657	688.364157461246	1038.782803595738	862.672722592701	691.130017428271	
110	27.611500000000	878.383646056820	1004.962440040931	414.769634215589	1058.177627472373	1432.349090738491	221.346368682684	1148.593629904167	1376.583602097284	393.648086315239	1048.473169381884	1451.978311695407	557.380530176879	1025.595507049339	1500.716366134396	374.297282771205	1105.580813416173	956.167416997343	542.305989563109	1101.378291074407	967.410576549589	266.454021306052	1186.156249474142	779.613179755386	521.560908987121	1144.147068826853	661.902639534211	602.760355676887	1230.341849092929	617.366978083195	525.238831354667	1258.426673255380	526.227861425125	550.663663493849	1131.589339020351	748.469295425065	297.403883826946	1031.446327278947	637.931929050269	237.483747666214	1109.656986805135	555.267574634542	298.374018160388	1103.342072014183	487.692382736711	308.870742568209	1075.722341515713	416.846445456307	303.317805944165	980.364269659523	303.587532955909	258.218615606884	1033.129995245020	193.391703214824	331.697937044170	1223.709025129208	439.218276090271	564.192745558082	1147.493813410260	346.800021698940	636.617743149660	1190.603917976297	244.234309071239	589.095769992692	1054.984923753404	85.332996267030	577.722010596044	1231.143821937377	122.197223027989	604.648349084205	1141.159309923537	66.846799432914	646.704299141985	1345.889001735302	60.748064118512	625.963682310768	903.985455868255	39.107128708804	382.317908344900	976.153208136396	35.070174241322	299.948765664220	1059.878999911648	96.484252677475	324.498272165394	1187.986700004208	44.901575025454	294.645858936432	1141.657807917660	1099.051426189742	85.871552658753	1377.999432396645	987.764469365714	114.788389884116	967.329197930100	1118.681905851973	687.491106538757	1016.738686947849	860.866660568912	692.961966954755	
111	27.625000000000	878.090044271690	1004.928218767329	414.323962998668	1059.432842104441	1431.992004255789	221.737310623268	1149.196811027447	1375.940401433167	394.304164736120	1048.796459281595	1451.432318508870	557.806332789490	1026.378503935115	1500.370347528217	374.675042485307	1104.813064903391	955.361675178481	542.421056789040	1101.497947755408	967.094355384980	266.542075674200	1182.858866469163	776.723566311426	521.904572917049	1139.174514410737	660.195262728375	603.577171230296	1224.564132613213	614.420347209241	525.519665686188	1253.061240382400	526.076994632816	550.153683101666	1129.884778183426	747.640174828387	297.821357867654	1028.792831708251	637.893423281008	237.321922311398	1105.528752486088	554.609571313855	298.848201095488	1098.453189871143	487.301408511431	309.348096838570	1070.936444441051	416.625519504389	303.558342440485	975.614758683213	303.470595234310	258.081585024548	1027.933109959282	193.239775449247	331.826448668629	1223.462737092073	439.699229112866	564.531782431278	1153.898419780187	342.664274656780	637.758899433226	1203.493341865693	243.089009402910	589.886554817242	1078.612312663972	75.979210751445	578.743554441788	1252.722114735290	122.758516746888	605.883448654237	1165.931018052601	62.061920639789	647.486387977823	1370.673505435321	67.294279229468	626.384102330831	898.557376538311	39.058351703248	382.304831694506	970.700066167676	35.030910159145	299.936281109504	1054.425050936385	96.454466619305	324.531955377869	1182.544945543353	44.873410249137	294.656841104792	1144.497727961911	1099.646577265092	85.530693223361	1384.071052859178	996.069570961097	114.481644765392	959.642894357146	1120.289740774644	686.769872494048	996.034333852305	860.312172170788	694.499451342249	
